<?xml version="1.0" encoding="utf-8"?>
<svg version="1.1" id="Слой_1" xmlns="http://www.w3.org/2000/svg" xmlns:xlink="http://www.w3.org/1999/xlink" x="0px" y="0px"
	 viewBox="0 0 282.06 5.42" style="enable-background:new 0 0 282.06 5.42;" xml:space="preserve">
<style type="text/css">
	.st0{fill:#8D8D8E;}
	.st1{fill:#8D8D8E;stroke:#9C9B9B;stroke-width:0.5;stroke-linecap:round;stroke-miterlimit:10;}
</style>
<path class="st0" d="M4.85,0c0,0-2.17,0.1-4.85,1.54l0.26,1.17L0,3.88c2.68,1.44,4.85,1.54,4.85,1.54l8.63-2.71L4.85,0z M4.81,4.85
	c0,0-1.71-0.07-3.98-1.22l0.26-0.93L0.82,1.78c2.27-1.14,3.98-1.22,3.98-1.22l7.29,2.14L4.81,4.85z"/>
<path class="st0" d="M22.65,1.07L11.92,2.71l10.73,1.64c0,0,2.38-0.53,4.22-1.64C25.03,1.6,22.65,1.07,22.65,1.07z M22.64,3.96
	l-8.15-1.25l8.15-1.25c0,0,1.81,0.4,3.21,1.25C24.46,3.56,22.64,3.96,22.64,3.96z"/>
<path class="st0" d="M30.15,1.73c-0.14,0.03-0.78,0.16-1.7,0.53c-0.5,0.21-0.92,0.45-0.92,0.45s0.42,0.24,0.92,0.45
	c0.92,0.37,1.56,0.5,1.7,0.53c0,0,0.37-0.14,0.37-0.98S30.15,1.73,30.15,1.73z M29.89,3.35c-0.1-0.01-0.52-0.1-1.12-0.35
	c-0.34-0.14-0.61-0.3-0.61-0.3s0.28-0.16,0.61-0.3c0.61-0.24,1.03-0.33,1.12-0.35c0,0,0.21,0.09,0.21,0.64S29.89,3.35,29.89,3.35z"
	/>
<line class="st1" x1="31.58" y1="2.71" x2="133" y2="2.71"/>
<path class="st0" d="M136.66,1.71c-0.14,0.03-0.78,0.16-1.7,0.53c-0.5,0.21-0.92,0.45-0.92,0.45s0.42,0.24,0.92,0.45
	c0.92,0.37,1.56,0.5,1.7,0.53c0,0,0.37-0.14,0.37-0.98S136.66,1.71,136.66,1.71z M136.4,3.33c-0.1-0.01-0.52-0.1-1.12-0.35
	c-0.34-0.14-0.61-0.3-0.61-0.3s0.28-0.16,0.61-0.3c0.61-0.24,1.03-0.33,1.12-0.35c0,0,0.21,0.09,0.21,0.64S136.4,3.33,136.4,3.33z"
	/>
<path class="st0" d="M268.58,2.71l8.63,2.71c0,0,2.17-0.1,4.85-1.54l-0.26-1.17l0.26-1.17C279.38,0.1,277.21,0,277.21,0L268.58,2.71
	z M269.96,2.71l7.29-2.14c0,0,1.71,0.07,3.98,1.22l-0.26,0.93l0.26,0.93c-2.27,1.14-3.98,1.22-3.98,1.22L269.96,2.71z"/>
<path class="st0" d="M255.19,2.71c1.84,1.12,4.22,1.64,4.22,1.64l10.73-1.64l-10.73-1.64C259.41,1.07,257.02,1.6,255.19,2.71z
	 M256.2,2.71c1.4-0.85,3.21-1.25,3.21-1.25l8.15,1.25l-8.15,1.25C259.41,3.96,257.6,3.56,256.2,2.71z"/>
<path class="st0" d="M251.54,2.71c0,0.84,0.37,0.98,0.37,0.98c0.14-0.03,0.78-0.16,1.7-0.53c0.5-0.21,0.92-0.45,0.92-0.45
	s-0.42-0.24-0.92-0.45c-0.92-0.37-1.56-0.5-1.7-0.53C251.9,1.73,251.54,1.88,251.54,2.71z M251.95,2.71c0-0.55,0.21-0.64,0.21-0.64
	c0.1,0.01,0.52,0.1,1.12,0.35c0.34,0.14,0.61,0.3,0.61,0.3s-0.28,0.16-0.61,0.3c-0.61,0.24-1.03,0.33-1.12,0.35
	C252.16,3.35,251.95,3.26,251.95,2.71z"/>
<line class="st1" x1="250.48" y1="2.71" x2="149.05" y2="2.71"/>
<path class="st0" d="M145.03,2.69c0,0.84,0.37,0.98,0.37,0.98c0.14-0.03,0.78-0.16,1.7-0.53c0.5-0.21,0.92-0.45,0.92-0.45
	s-0.42-0.24-0.92-0.45c-0.92-0.37-1.56-0.5-1.7-0.53C145.4,1.71,145.03,1.85,145.03,2.69z M145.44,2.69c0-0.55,0.21-0.64,0.21-0.64
	c0.1,0.01,0.52,0.1,1.12,0.35c0.34,0.14,0.61,0.3,0.61,0.3s-0.28,0.16-0.61,0.3c-0.61,0.24-1.03,0.33-1.12,0.35
	C145.65,3.33,145.44,3.24,145.44,2.69z"/>
</svg>
