
<svg id="Слой_1" data-name="Слой 1" xmlns="http://www.w3.org/2000/svg" viewBox="0 0 748.26 157.4"><defs><style>.cls-1{fill:#f8f7f7;}</style></defs><path class="cls-1" d="M186.86,115.73h-5.8s-9.32,15.39-13.16,21.64c0,0-10.36,5.48-15.64,5.61-.3,0-1.11-.1-.38-1.3l15.69-25.95h-5.79l-13.13,21.65a91.77,91.77,0,0,1-21.05,4.92c-2.63.25-3.11-1.22-1.61-3.56.71-1.11,9.74-15.1,19.21-30.36a159.26,159.26,0,0,0,18.46-13.87c25.54-24.24,23.9-39.4,23.9-39.4s-12.7,3.72-23.17,18.63c-5.11,7.32-11,16.26-16.72,25.21a116.28,116.28,0,0,1-17.44,10c-12.26,5.52-27.95,8.84-27,7.31,1.5-2.47,11.07-18.9,24.92-41.12C139.16,57.45,144,49.54,148,39c5.48-14.59,3-31.68,1.31-37C148.34-1,147.2.26,147.2.26S99.65,79,96.91,84.28c6.39-5.93,47.16-70.39,47.16-70.39s2.2,10.55.34,20.2c-1.76,9.08-4.52,14.63-10.26,24.47-2.78,4.77-12.62,20.78-14.17,23.28-4.37,7.1-18.57,30-24.09,38.73-4.27,6.8.28,6.91,7.23,5.85,10.67-1.62,24.62-7.19,37-14.81-9.52,15.21-16.57,26.4-17.58,28.11-.89,1.55-4.21,6.56,7.57,4.19,7.21-1.46,13.38-3.12,17.14-4.2-1.55,2.58-2.68,4.8,2.85,4.8,6.22,0,14.47-3.86,16.42-4.82-1.55,2.59-2.69,4.82,2.86,4.82,5.25,0,11-2.8,11-2.8l.37-1a29.32,29.32,0,0,1-9.21,2.24c-.32,0-1.14-.1-.41-1.3ZM163.88,78c3.42-4.62,9.6-12.18,16-15.56,1.47-.76-3.8,9.63-7.34,14a115.36,115.36,0,0,1-19.5,18.66C158.54,86.25,163,79.26,163.88,78Z" transform="translate(0 0)"/><path class="cls-1" d="M12.05,134.22s.3.91-3,3.24c-8.52,6,3.8,11.41,13.58,13,13.21,2.13,24-.35,35.71-9.13,13.43-10.07,29-30.39,34.68-38.85C101.64,89.54,134.45,39,134.45,39s1.24,0-4.6,10.43C128.38,52,102.52,93.48,97,101.79c-12.22,18.41-19.23,27.73-30.93,38.66-7.2,6.72-19.95,18.25-41.06,16.83-13.65-.92-25-7.63-25-12.77S12.05,134.22,12.05,134.22Z" transform="translate(0 0)"/><path class="cls-1" d="M282.46,143a29.32,29.32,0,0,0,9.21-2.24l-.37,1s-5.8,2.8-11.05,2.8c-5.54,0-4.4-2.23-2.85-4.82-2,1-10.2,4.82-16.43,4.82-5.53,0-4.39-2.22-2.85-4.81a33.13,33.13,0,0,1-11.48,4.51c-6.32,1.19-8.24.3-5-5.64.25-.46-7,6.27-17.88,6a2.86,2.86,0,0,1-2.51-1.67,6.13,6.13,0,0,1-.54-2.62,33.5,33.5,0,0,1-12.38,4.15c-3.8.34-4.38.08-5.9-8.35-.49-2.8-.92-6.2-1.47-9.51a51,51,0,0,0-5.11,3.77c-6.8,5.19-9.26,10.41-9.26,10.41l.94-.23c1.52-.3,3.15,0,2.76.65a7.69,7.69,0,0,1-4.86,2.82c-1.55.35-3.45.68-3.43.41,0,0,2.15-10.83,18-20.62.17-.11.33-.19.47-.27-.06-.43-.14-.87-.22-1.3-.82-4.68-1.8-5.42-3.08-5.42a23.21,23.21,0,0,0-4.56.74c-.73.22,4.13-2.4,6.63-2.64,3.37-.35,3.81,1.5,4.82,6.55,11-5.84,18-5.46,22.22-5.14s-7,7.73-8.41,7.73-3.64-.36-3.48-1.25c.11-.66,2.83-1.66,2.83-1.93s-4.65,0-8.84,2c-1.17.55-2.42,1.17-3.67,1.88,3,14.52,2.28,18.39,6.83,17.84a27,27,0,0,0,9.26-3c.22-2.59,1.69-6.34,6-11.56,10.38-12.46,22.81-13.67,27.58-11.47,1.2.56,1.5,1.72.93,4.68a2.2,2.2,0,0,1,2.22,1.42,51.59,51.59,0,0,1-8.58,1.09s2.84-3.38,2.83-4.77c0-1.24-4.9-2.19-12.74,3.59-8.1,6-13.82,15.13-12.4,19.78,0,0,.21,1.27,4.27,0,2.75-.85,8.57-2.86,12.89-7.58l5.8-9.49,5.13-.27s-8,8.27-11.35,13.68c-1.44,2.33-2.07,3.91.87,3.91a30.37,30.37,0,0,0,15.13-5c3.58-5.91,13.26-21.85,13.26-21.85h5.79l-15.69,26c-.74,1.2.08,1.3.38,1.3,5.27-.13,15.64-5.61,15.64-5.61,3.83-6.25,13.16-21.64,13.16-21.64h5.79l-15.69,26C281.31,142.88,282.13,143,282.46,143Z" transform="translate(0 0)"/><path class="cls-1" d="M320.52,141.68l15.69-25.95h-5.79a32,32,0,0,0-9.87,2.45c-7.53,3.38-15,10.61-19.07,15.77s-7,8.62-9.22,9.57c-.19.16-.12.25.29.41a13,13,0,0,0,13.36-3.7c5.63-6.09,10.17-13.57,12.7-16.45,3.35-3.81,8.88-4.22,9.37-4.22-3.64,6-10.23,17.06-11.78,19.61-1.69,2.8-3.37,5.33,2.53,5.33,5.25,0,11.51-2.8,11.51-2.8l.38-1a33.59,33.59,0,0,1-9.69,2.26C320.6,143,319.79,142.88,320.52,141.68Zm-10.72-12.1c-4.29,5.19-8,10.85-12.51,11.78,0,0,4.87-6.07,6.42-8,3.92-4.79,6.88-7.42,11.07-9.79C314.7,123.76,313.9,124.63,309.8,129.58Z" transform="translate(0 0)"/><path class="cls-1" d="M550.72,115.73h-5.8s-9.32,15.39-13.16,21.64c0,0-10.36,5.48-15.64,5.61-.3,0-1.11-.1-.38-1.3l15.69-25.95h-5.79s-9.8,16.14-13.31,22a91.63,91.63,0,0,1-20.19,4.61c-2.64.25-3.12-1.22-1.62-3.56.71-1.11,9.74-15.1,19.21-30.36a158.38,158.38,0,0,0,18.46-13.87c25.54-24.24,23.91-39.4,23.91-39.4s-12.71,3.72-23.18,18.63C523.81,81.06,517.91,90,512.2,99a116.28,116.28,0,0,1-17.44,10c-12.26,5.52-27.95,8.84-27,7.31,1.5-2.47,11.07-18.9,24.92-41.12,11-17.73,15.87-25.64,19.84-36.21,5.47-14.59,3-31.68,1.3-37C512.87-1,511.73.26,511.73.26s-47.55,78.72-50.29,84c6.39-5.93,47.16-70.39,47.16-70.39s2.21,10.55.34,20.2c-1.76,9.08-4.52,14.63-10.25,24.47-2.79,4.77-12.62,20.78-14.17,23.28-4.38,7.1-18.58,30-24.1,38.73-4.27,6.8.28,6.91,7.23,5.85,10.67-1.62,24.62-7.19,37-14.81-9.52,15.21-16.57,26.4-17.57,28.11-.9,1.55-4.22,6.56,7.56,4.19,6.71-1.36,12.53-2.89,16.33-4-1.48,2.48-2.38,4.57,3,4.57,6.23,0,14.47-3.86,16.43-4.82-1.55,2.59-2.69,4.82,2.86,4.82,5.25,0,11-2.8,11-2.8l.37-1a29.32,29.32,0,0,1-9.21,2.24c-.33,0-1.14-.1-.41-1.3ZM528.41,78c3.42-4.62,9.6-12.18,16-15.56,1.46-.76-3.81,9.63-7.35,14a115.36,115.36,0,0,1-19.5,18.66C523.08,86.25,527.48,79.26,528.41,78Z" transform="translate(0 0)"/><path class="cls-1" d="M376.58,134.22s.3.91-3,3.24c-8.52,6,3.8,11.41,13.58,13,13.21,2.13,24-.35,35.71-9.13,13.43-10.07,29-30.39,34.68-38.85C466.17,89.54,499,39,499,39s1.24,0-4.6,10.43c-1.47,2.63-27.33,44.08-32.85,52.39-12.22,18.41-19.23,27.73-30.93,38.66-7.2,6.72-20,18.25-41.06,16.83-13.65-.92-25-7.63-25-12.77S376.58,134.22,376.58,134.22Z" transform="translate(0 0)"/><path class="cls-1" d="M694.79,143a29.46,29.46,0,0,0,9.22-2.26l-.38,1s-5.79,2.8-11,2.8c-5.55,0-4.41-2.23-2.86-4.81-2,.95-10.2,4.81-16.43,4.81-5.9,0-4.22-2.53-2.53-5.33C673,135.53,685,115.73,685,115.73h5.79l-15.69,26c-.73,1.2.08,1.31.38,1.31,5.28-.14,15.64-5.61,15.64-5.61,3.83-6.26,13.16-21.64,13.16-21.64h5.79l-15.69,26C693.65,142.88,694.46,143,694.79,143Z" transform="translate(0 0)"/><path class="cls-1" d="M733,143a36.76,36.76,0,0,0,10-2.26l-.43.86s-6.48,2.92-11.7,2.92c-5.93,0-4.24-2.53-2.56-5.33.87-1.39,3-4.87,5.52-9.06-4.73,2.28-10.78,5.9-17.22,6.07-2.8,4.65-5,8.32-5,8.32h-5.85s14.63-24.07,14.66-24.29c0-.68-2.53.52-3.56-.11,3.59-1.85,6.64-4,11.15-4.38,1-.11.63.65.16,1.44-.19.35-5.66,9.33-10.23,16.92,3.1-.49,11.94-3.05,17.54-6.72,3.59-5.87,7.1-11.64,7.1-11.64h5.77l-15.69,25.95C731.84,142.88,732.65,143,733,143Z" transform="translate(0 0)"/><path class="cls-1" d="M574.17,141.68l15.69-25.95h-5.79a32,32,0,0,0-9.87,2.45c-7.53,3.38-15,10.61-19.07,15.77s-7,8.62-9.22,9.57c-.19.16-.12.25.29.41a13,13,0,0,0,13.36-3.7c5.63-6.09,10.17-13.57,12.7-16.45,3.35-3.81,8.88-4.22,9.37-4.22-3.64,6-10.23,17.06-11.78,19.61-1.69,2.8-3.37,5.33,2.53,5.33,5.25,0,11.51-2.8,11.51-2.8l.38-1a33.59,33.59,0,0,1-9.69,2.26C574.25,143,573.44,142.88,574.17,141.68Zm-10.72-12.1c-4.29,5.19-8,10.85-12.51,11.78,0,0,4.87-6.07,6.42-8,3.92-4.79,6.88-7.42,11.07-9.79C568.35,123.76,567.54,124.63,563.45,129.58Z" transform="translate(0 0)"/><path class="cls-1" d="M627.73,115.73c-1.77,0-7-.44-12,5.63-1.14,1.36-4.49,6.66-7.48,11.48a62.07,62.07,0,0,1-11.61,2.69l12-19.8h-5.79l-17.41,28.78h5.79l4-6.58A91.4,91.4,0,0,0,606.89,135c-2.23,3.64-4,6.55-4,6.55s-2.1,2.69,2.39,2.94c6,.33,15.25-2,20.54-5.59,7.36-5,9.59-10,10.6-13.42C637.9,120.61,633.77,115.73,627.73,115.73Zm-10.28,10.5a13.25,13.25,0,0,1,4.9-4.54,1.22,1.22,0,0,1,.08.79c-.08.46-.27,2.8-5.87,6.42a12.68,12.68,0,0,1-1.28.76C616.2,128.16,617,126.91,617.45,126.23Zm13.89,4.62c-3.06,5.52-13.15,11.86-21.2,12.24,0,0-4.19.88-1.88-2.09,0,0,2.72-4.49,5.28-8.59a15.37,15.37,0,0,0,1.71-.9c7.45-4.32,9-7.51,9.17-9.52a4.44,4.44,0,0,0,0-1.12c.41-.11.84-.19,1.28-.27,2.45-.38,4.73-.11,6.4,1.66C634.12,124.43,633.21,127.47,631.34,130.85Z" transform="translate(0 0)"/><path class="cls-1" d="M644.15,144.51s13.32-21.76,13.7-22.31c1.11-1.59,3.46-2.71,6.5-1.57l-14.43,23.88Z" transform="translate(0 0)"/><path class="cls-1" d="M639.81,125.35s4.77-8.45,19.09-9.63a35.89,35.89,0,0,1,19.12,4c.65.32.28.67-.5.4-6-2.09-9.36-2.26-15.12-2.18-6,.09-10.15,1.49-13.3,3.62,0,0,1.61-.61,1.94.48a1.77,1.77,0,0,1-1,2.06C649,124.65,646,125.93,639.81,125.35Z" transform="translate(0 0)"/></svg>